HIERARCHY
ROOT Hips
{
     OFFSET 1.88212 96.90440 -13.34250
     CHANNELS 6 Xposition Yposition Zposition Zrotation Xrotation Yrotation
     JOINT Spine
     {
          OFFSET 0.00000 11.89050 0.00000
          CHANNELS 3 Zrotation Xrotation Yrotation
          JOINT Spine1
          {
               OFFSET -0.00000 25.65740 0.12766
               CHANNELS 3 Zrotation Xrotation Yrotation
               JOINT HEad
               {
                    OFFSET 0.00000 8.73416 0.01134
                    CHANNELS 3 Zrotation Xrotation Yrotation
                    End Site
                    {
                         OFFSET -0.29000 12.77420 2.51395
                    }
               }
               JOINT LeftShoulder1
               {
                    OFFSET 8.99000 -0.36225 -0.22000
                    CHANNELS 3 Zrotation Xrotation Yrotation
                    JOINT LeftArm
                    {
                         OFFSET 10.28270 -0.00338 0.32212
                         CHANNELS 3 Zrotation Xrotation Yrotation
                         JOINT LeftForeArm
                         {
                              OFFSET 32.76690 0.09914 -1.42434
                              CHANNELS 3 Zrotation Xrotation Yrotation
                              JOINT LeftHand
                              {
                                   OFFSET 27.56430 0.08536 1.02216
                                   CHANNELS 3 Zrotation Xrotation Yrotation
                                   End Site
                                   {
                                        OFFSET 16.74430 -0.60000 1.50291
                                   }
                              }
                         }
                    }
               }
               JOINT RightShoulder
               {
                    OFFSET -8.99000 -0.36225 -0.22000
                    CHANNELS 3 Zrotation Xrotation Yrotation
                    JOINT RightArm
                    {
                         OFFSET -10.28270 -0.00338 0.32212
                         CHANNELS 3 Zrotation Xrotation Yrotation
                         JOINT RightForeArm
                         {
                              OFFSET -32.89710 0.09914 -1.42434
                              CHANNELS 3 Zrotation Xrotation Yrotation
                              JOINT RightHand
                              {
                                   OFFSET -27.49210 0.08536 1.02216
                                   CHANNELS 3 Zrotation Xrotation Yrotation
                                   End Site
                                   {
                                        OFFSET -16.63120 -0.60000 1.50291
                                   }
                              }
                         }
                    }
               }
          }
     }
     JOINT LeftUpLeg
     {
          OFFSET 8.94580 -8.66707 0.10165
          CHANNELS 3 Zrotation Xrotation Yrotation
          JOINT LeftLeg
          {
               OFFSET 0.00000 -44.42270 1.37270
               CHANNELS 3 Zrotation Xrotation Yrotation
               JOINT LeftFoot
               {
                    OFFSET -0.25355 -42.09240 -1.46059
                    CHANNELS 3 Zrotation Xrotation Yrotation
                    JOINT LeftToes
                    {
                         OFFSET -0.04000 -4.41509 8.49910
                         CHANNELS 3 Zrotation Xrotation Yrotation
                         End Site
                         {
                              OFFSET 0.08000 -0.04745 9.77979
                         }
                    }
               }
          }
     }
     JOINT RightUpLeg
     {
          OFFSET -8.94580 -8.66707 0.10165
          CHANNELS 3 Zrotation Xrotation Yrotation
          JOINT RightLeg
          {
               OFFSET 0.00000 -44.42270 1.37270
               CHANNELS 3 Zrotation Xrotation Yrotation
               JOINT RightFoot
               {
                    OFFSET 0.25355 -42.09240 -1.46059
                    CHANNELS 3 Zrotation Xrotation Yrotation
                    JOINT RightToes
                    {
                         OFFSET 0.04000 -4.41509 8.49910
                         CHANNELS 3 Zrotation Xrotation Yrotation
                         End Site
                         {
                              OFFSET -0.08000 -0.13745 9.77979
                         }
                    }
               }
          }
     }
}
MOTION
Frames: 13
Frame Time: 0.01667
-28.90931 92.89411 110.46175 -33.22831 21.82157 -92.03933 8.55167 45.14397 -10.98706 0.00892 0.02205 -0.01088 14.50744 12.20225 -25.63862 0.92245 5.77469 3.79171 -79.59731 -10.37449 -71.79142 -30.09022 35.56929 -89.02863 15.23971 8.76015 -10.89277 32.92492 7.18614 -4.40950 82.55611 -34.49375 84.00063 8.92531 30.17525 97.88708 15.59233 10.49590 2.42599 18.79317 10.24367 -19.97652 -29.85946 18.94683 74.53071 -9.24676 0.00256 -0.00325 6.03007 -23.84194 -77.49874 -13.09362 -42.00319 -55.03174 -117.45964 56.69080 120.46524 4.71784 0.03869 -0.00934 2.95711 34.44839 3.53106 
-28.18135 92.51726 111.19922 -29.52874 21.83686 -95.06711 8.79764 45.72046 -10.94127 0.00968 0.02035 -0.01246 15.83653 12.52349 -24.97713 2.20176 5.89725 3.36457 -82.49556 -12.70965 -73.71976 -31.11338 36.84721 -88.06050 15.53479 9.30492 -11.51990 31.53205 7.55492 -3.73988 84.51762 -32.50926 86.18784 8.44042 30.48022 98.91123 15.33795 10.02030 2.03256 18.13066 7.27958 -17.34328 -29.37704 17.90560 74.80009 -8.38092 0.00119 -0.00445 6.19143 -22.35737 -77.07737 -6.55190 -41.14707 -55.78006 -96.24417 52.85946 99.27464 4.28615 0.02454 0.01676 5.13624 36.45185 4.50322 
-27.36131 91.84680 111.94894 -25.46401 21.15106 -98.66846 7.95262 45.94946 -10.36160 -0.00489 0.01484 -0.02587 16.65620 12.62639 -23.44164 2.62305 6.49881 0.73934 -85.20366 -19.16800 -75.77745 -32.16219 38.10917 -87.03563 18.64348 13.46620 -9.79814 27.32061 7.07284 -5.25969 87.53671 -26.65046 85.98081 8.28203 30.91110 100.34338 16.44512 5.84736 5.22291 17.42236 3.69479 -14.60531 -28.45747 17.67699 75.27567 -2.74237 -0.00029 -0.05454 6.76305 -20.98547 -72.84923 0.48205 -38.85795 -54.99026 -78.13200 45.40881 81.63774 3.54898 0.00584 0.03532 3.96307 34.49769 6.46301 
-26.53205 91.23422 112.67522 -21.22523 19.73945 -102.69211 6.07215 45.43469 -9.10479 -0.00568 -0.00855 -0.00430 16.97067 12.81646 -21.52029 2.97284 6.29967 -0.46570 -88.33482 -25.32968 -77.01849 -33.22908 39.35042 -85.91492 22.91330 18.83253 -7.34284 23.59063 6.14085 -6.37452 88.75048 -20.75848 84.04971 8.56030 31.41025 101.97169 16.41470 5.33001 6.60434 16.86625 -0.38483 -11.76805 -27.29349 18.21715 75.86239 5.24071 -0.00722 -0.11889 7.57171 -19.17635 -67.68244 7.05101 -35.40926 -53.33224 -64.29171 35.35902 68.62661 2.61677 -0.01045 0.04339 1.14561 30.02934 9.07803 
-25.79506 90.80793 113.33406 -17.05058 17.63909 -106.96022 3.37732 44.25725 -7.36087 -0.00477 -0.01129 -0.00352 16.81066 13.00050 -19.24040 3.21827 5.54188 -0.72743 -91.92034 -31.54754 -77.80270 -34.22187 40.58760 -84.63953 24.78702 20.13928 -7.54566 20.27422 4.91688 -7.19057 88.75555 -14.73957 81.16030 7.72318 31.01735 104.41697 16.06441 5.99663 7.09406 16.59670 -4.71468 -8.82439 -26.08417 19.41339 76.40269 14.25576 -0.01648 -0.16608 8.59993 -17.29983 -63.86871 12.43306 -31.20595 -51.31160 -53.58677 23.82896 59.15409 1.57561 -0.02268 0.04898 -2.00616 24.10911 11.82807 
-25.29127 90.68352 113.86319 -13.40235 14.12971 -112.17030 -1.64491 41.71734 -4.07049 -0.01146 -0.03000 -0.00549 15.51133 12.70858 -16.06977 2.48379 3.47589 0.36659 -95.40780 -39.36210 -76.74220 -34.26707 42.23931 -83.11723 20.61886 12.42170 -12.77760 19.01358 3.21766 -6.09943 87.18830 -11.72582 78.30361 7.18004 30.46832 106.32384 15.01190 8.78256 5.67666 16.47142 -9.21108 -5.53782 -24.98947 22.46931 76.84411 8.81333 0.01208 0.11493 6.54533 -15.67773 -66.45907 15.38385 -26.47720 -47.38912 -44.61580 14.02058 50.44852 -0.64847 -0.09526 0.09279 -6.16965 14.33284 15.06346 
-25.08971 90.84352 114.23703 -10.78902 10.98448 -116.34859 -5.54931 38.82590 -1.95666 -0.01054 -0.02327 -0.00512 13.41237 11.74437 -12.28499 1.93071 2.43963 1.44072 -98.26386 -44.98462 -76.70951 -34.41025 43.75304 -82.49045 19.99652 11.04641 -12.71922 18.20492 2.45549 -5.41602 85.98511 -9.03037 76.32555 6.67157 29.98893 107.89269 15.16591 8.91616 5.44556 17.50161 -13.39847 -3.77073 -25.82774 26.84422 76.69357 21.17277 0.33059 -0.29555 -7.05955 -14.59359 -64.08696 16.01514 -21.47870 -43.98600 -36.37510 5.97839 41.90451 -3.83094 -0.17831 0.10977 -7.80005 4.44722 18.71917 
-25.19912 91.19051 114.46401 -9.03037 8.35694 -119.68975 -8.46636 35.83885 -0.73465 -0.00864 -0.01440 -0.00344 10.89146 9.99517 -8.12898 1.45269 2.30429 2.42732 -100.59759 -49.11401 -77.24525 -34.65603 44.98757 -82.32513 18.02033 7.83382 -14.72426 17.76229 2.53410 -4.89562 85.01638 -6.77327 74.85761 6.08479 29.65344 109.25632 14.65575 10.31014 4.45118 19.28144 -17.24131 -3.39627 -27.40515 31.32356 76.64903 7.46937 -0.28222 0.36790 0.92834 -12.78453 -63.27287 14.86256 -16.78275 -40.75822 -28.47686 -0.20724 33.30020 -7.92849 -0.26780 0.10616 -7.79867 -7.02241 21.99893 
-25.57971 91.58234 114.58286 -7.95687 6.29865 -122.35724 -10.54922 32.91386 -0.14800 -0.00662 -0.00534 -0.00147 8.32936 7.39774 -3.80749 1.00455 2.91542 3.30260 -102.52048 -52.19665 -78.07822 -34.94094 45.90327 -82.30984 18.06741 7.77658 -13.89581 17.56554 3.32112 -4.48129 84.22836 -4.93111 73.67446 5.39239 29.47782 110.48186 14.70027 10.22491 4.25046 21.47353 -20.68525 -4.37338 -31.56702 33.97437 79.40539 7.49204 0.00612 0.02108 -1.71879 -13.02921 -61.76670 12.44411 -12.67710 -37.38042 -20.83149 -4.48224 24.54383 -12.85764 -0.34499 0.06800 -5.68918 -19.36694 24.77206 
-26.18867 91.92393 114.65271 -7.41937 4.79071 -124.48398 -11.93071 30.13066 0.00556 -0.00476 0.00319 0.00038 6.21824 5.38162 0.00483 0.55654 4.12559 4.09167 -104.13343 -54.50625 -79.02689 -35.21564 46.58283 -82.36427 17.16549 6.44515 -14.72644 17.48690 4.67781 -4.15515 83.60480 -3.47765 72.66941 4.64419 29.41770 111.55370 14.31890 10.91745 3.70864 23.40422 -23.40290 -5.68243 -36.19213 34.95182 82.83199 2.57763 -0.07442 0.03328 -8.60599 -22.94558 -75.81559 9.15610 -9.28461 -33.62156 -13.47707 -6.91768 15.57837 -18.40394 -0.38242 -0.00948 0.42716 -14.78404 33.97122 
-26.98454 92.16204 114.72359 -7.28616 3.77907 -126.18087 -12.70832 27.52486 -0.12325 -0.00349 0.01107 0.00190 4.44184 3.91118 3.37263 0.08322 5.78976 4.77618 -105.58805 -56.26278 -80.05639 -35.47351 47.11141 -82.36243 17.33192 6.74392 -13.98524 17.41658 6.45882 -3.91930 83.13708 -2.37370 71.79895 3.90244 29.42852 112.46063 14.28435 10.80725 3.69895 24.97492 -25.48974 -7.33340 -40.57609 34.47024 86.25640 1.58726 -0.00442 0.00546 -2.86577 -18.40935 -66.32098 5.29018 -6.63165 -29.33773 -6.44977 -7.75515 6.34599 -24.23755 -0.36132 -0.10580 5.52796 -19.93176 39.58883 
-27.89587 92.26041 114.83162 -7.41849 3.19603 -127.50905 -12.92101 25.10113 -0.46467 -0.00310 0.01821 0.00312 2.90012 2.93513 6.34047 -0.43642 7.76583 5.34100 -107.09337 -57.64505 -81.23257 -35.76604 47.63644 -82.24345 16.91735 6.21782 -14.37839 17.25752 8.51877 -3.75654 82.83126 -1.58428 71.06975 3.22903 29.46063 113.15136 14.06174 11.19098 3.50960 25.89277 -26.56837 -9.44585 -43.33986 31.66215 87.42221 2.39582 0.03739 0.00306 -5.13526 -20.74090 -67.74706 1.06325 -4.77261 -24.49045 0.27226 -7.29982 -3.19317 -29.98238 -0.28823 -0.18741 10.33793 -21.79230 45.76903 
-28.84798 92.20869 114.99784 -7.68673 2.96546 -128.51305 -12.59953 22.84883 -0.98130 -0.00385 0.02463 0.00404 1.51467 2.38902 8.94182 -1.01094 9.91889 5.74687 -108.92208 -58.80826 -82.73937 -36.17363 48.27797 -81.87879 17.14125 6.55603 -13.86724 16.93664 10.72060 -3.64377 82.69905 -1.05639 70.50809 2.65415 29.48384 113.59270 14.10965 11.15016 3.63159 26.10601 -26.47905 -12.01732 -44.41887 27.58006 86.59810 4.17042 0.07431 -0.00717 -3.90287 -19.10635 -62.53790 -3.35496 -3.77730 -19.10858 6.82554 -5.81367 -13.04775 -35.32300 -0.19113 -0.23436 15.22311 -26.70939 50.50696 
